<?xml version="1.0" encoding="UTF-8"?>
<svg viewBox="0 0 128 128" role="img" xmlns="http://www.w3.org/2000/svg" xmlns:dc="http://purl.org/dc/elements/1.1/" xmlns:cc="http://creativecommons.org/ns#" xmlns:rdf="http://www.w3.org/1999/02/22-rdf-syntax-ns#" xmlns:ns1="http://www.inkscape.org/namespaces/inkscape" xmlns:ns2="http://sodipodi.sourceforge.net/DTD/sodipodi-0.dtd" xmlns:ns4="http://creativecommons.org/ns#" xmlns:ns6="http://www.w3.org/1999/xlink">
  <g id="ai" transform="translate(3.8519 -1.4074) scale(1.629630)">
    <rect x="12" y="17" width="40" height="34" rx="8" fill="none" stroke="#30384a" stroke-width="7"/>
    <path d="M 23 10 V 17 M 41 10 V 17 M 23 51 V 58 M 41 51 V 58" fill="none" stroke="#30384a" stroke-width="6" stroke-linecap="round"/>
    <path d="M 32 25 L 35 32 L 42 35 L 35 38 L 32 45 L 29 38 L 22 35 L 29 32 Z" fill="#e2a35b"/>
  </g>
  <g id="embedding" transform="translate(77.8491 77.8491) scale(0.754717)">
    <circle cx="32" cy="32" r="7" fill="#e2a35b"/>
    <circle cx="14" cy="14" r="5" fill="none" stroke="#e2a35b" stroke-width="7"/>
    <circle cx="50" cy="14" r="5" fill="none" stroke="#e2a35b" stroke-width="7"/>
    <circle cx="14" cy="50" r="5" fill="none" stroke="#e2a35b" stroke-width="7"/>
    <circle cx="50" cy="50" r="5" fill="none" stroke="#e2a35b" stroke-width="7"/>
    <path d="M 19 19 L 27 27 M 45 19 L 37 27 M 19 45 L 27 37 M 45 45 L 37 37" fill="none" stroke="#e2a35b" stroke-width="6" stroke-linecap="round"/>
  </g>
</svg>
