<?xml version="1.0" encoding="UTF-8"?>
<svg viewBox="0 0 128 128" role="img" xmlns="http://www.w3.org/2000/svg" xmlns:dc="http://purl.org/dc/elements/1.1/" xmlns:cc="http://creativecommons.org/ns#" xmlns:rdf="http://www.w3.org/1999/02/22-rdf-syntax-ns#" xmlns:ns1="http://www.inkscape.org/namespaces/inkscape" xmlns:ns2="http://sodipodi.sourceforge.net/DTD/sodipodi-0.dtd" xmlns:ns4="http://creativecommons.org/ns#" xmlns:ns6="http://www.w3.org/1999/xlink">
  <g id="base-object" transform="translate(4.8000 2.8000) scale(1.600000)">
    <path d="M 8 15 L 24 9 L 40 15 L 56 9 V 49 L 40 55 L 24 49 L 8 55 Z" fill="none" stroke="#30384a" stroke-width="7" stroke-linejoin="round"/>
    <path d="M 24 9 V 49 M 40 15 V 55" fill="none" stroke="#30384a" stroke-width="6" stroke-linecap="round"/>
    <path d="M 17 39 C 25 29 34 38 44 25" fill="none" stroke="#e2a35b" stroke-width="7" stroke-linecap="round" stroke-linejoin="round"/>
  </g>
  <g id="operation-badge" transform="translate(76.0741 78.2963) scale(0.740741)">
    <circle cx="18" cy="42" r="6" fill="#e2a35b"/>
    <path d="M 30 34 C 38 37 42 43 44 52 M 33 20 C 49 26 56 38 58 54" fill="none" stroke="#e2a35b" stroke-width="8" stroke-linecap="round"/>
    <path d="M 12 19 L 25 10 L 38 19" fill="none" stroke="#e2a35b" stroke-width="8" stroke-linecap="round" stroke-linejoin="round"/>
  </g>
</svg>
