<?xml version="1.0" encoding="UTF-8"?>
<svg viewBox="0 0 128 128" role="img" xmlns="http://www.w3.org/2000/svg" xmlns:dc="http://purl.org/dc/elements/1.1/" xmlns:cc="http://creativecommons.org/ns#" xmlns:rdf="http://www.w3.org/1999/02/22-rdf-syntax-ns#" xmlns:ns1="http://www.inkscape.org/namespaces/inkscape" xmlns:ns2="http://sodipodi.sourceforge.net/DTD/sodipodi-0.dtd" xmlns:ns4="http://creativecommons.org/ns#" xmlns:ns6="http://www.w3.org/1999/xlink">
  <g id="base-object" transform="translate(10.2115 8.2114) scale(0.715447)">
<g transform="translate(0 0) scale(0.5)"><metadata id="metadata2991"><rdf:RDF><ns4:Work rdf:about=""><dc:format>image/svg+xml</dc:format><dc:type rdf:resource="http://purl.org/dc/dcmitype/StillImage" /><dc:title /></ns4:Work></rdf:RDF></metadata><defs id="defs2989"><linearGradient x1="0" y1="0" x2="1" y2="0" gradientUnits="userSpaceOnUse" gradientTransform="matrix(-4.02e-6,-91.8907,-91.8907,4.02e-6,85.8809,161.434)" spreadMethod="pad" id="linearGradient3027"><stop style="stop-opacity:1;stop-color:#97d9f6" offset="0" id="stop3029" /><stop style="stop-opacity:1;stop-color:#0f80cc" offset="0.920245" id="stop3031" /><stop style="stop-opacity:1;stop-color:#0f80cc" offset="1" id="stop3033" /></linearGradient><linearGradient ns1:collect="always" ns6:href="#linearGradient3027" id="linearGradient5421" gradientUnits="userSpaceOnUse" gradientTransform="matrix(-4.02e-7,-9.18907,-9.18907,4.02e-7,8.58809,16.1434)" spreadMethod="pad" x1="-15.614694" y1="-9.1082983" x2="-6.7410073" y2="-9.1082983" /><linearGradient ns1:collect="always" ns6:href="#linearGradient3027" id="linearGradient3003" gradientUnits="userSpaceOnUse" gradientTransform="matrix(-4.02e-7,-9.18907,-9.18907,4.02e-7,8.58809,16.1434)" spreadMethod="pad" x1="-15.614694" y1="-9.1082983" x2="-6.7410073" y2="-9.1082983" /></defs><ns2:namedview pagecolor="#ffffff" bordercolor="#666666" borderopacity="1" objecttolerance="10" gridtolerance="10" guidetolerance="10" ns1:pageopacity="0" ns1:pageshadow="2" ns1:window-width="1920" ns1:window-height="1017" id="namedview2987" showgrid="false" ns1:zoom="0.73710525" ns1:cx="217.03271" ns1:cy="157.19018" ns1:window-x="-8" ns1:window-y="-8" ns1:window-maximized="1" ns1:current-layer="g2993" fit-margin-top="10" fit-margin-left="10" fit-margin-right="10" fit-margin-bottom="10" ns1:snap-page="true" ns1:snap-bbox="true" /><g id="g2993" ns1:groupmode="layer" ns1:label="ink_ext_XXXXXX" transform="matrix(1.25,0,0,-1.25,-41.57475,299.78375)"><g id="g2998" transform="matrix(1.5512433,0,0,1.5512433,-16.326028,-27.718348)"><path d="m 103.096,71.5961 c -0.057,0.7219 -0.091,1.191 -0.091,1.191 0,0 -2.189,14.7578 -4.7948,19.1617 -0.4122,0.6981 0.0449,3.5653 1.1953,7.8121 0.6725,-1.1629 3.5115,-6.1371 4.0815,-7.7398 0.642,-1.8121 0.777,-2.3313 0.777,-2.3313 0,0 -1.557,8.0114 -4.112,12.6862 0.56,1.89 1.229,3.979 1.986,6.212 0.968,-1.698 3.285,-5.809 3.795,-7.235 0.103,-0.293 0.19,-0.542 0.268,-0.77 0.025,0.137 0.05,0.274 0.075,0.411 -0.585,2.482 -1.734,6.801 -3.307,9.992 3.49,18.165 15.393,42.445 27.596,53.278 l -79.6048,0 c -5.3352,0 -9.7004,-4.366 -9.7004,-9.701 l 0,-87.7892 c 0,-5.3347 4.3652,-9.7 9.7004,-9.7 l 52.4298,0 c -0.378,4.5762 -0.504,9.6391 -0.294,14.5223" style="fill:#0f80cc;fill-opacity:1;fill-rule:nonzero;stroke:none" id="path3005" ns1:connector-curvature="0" /><path d="m 99.4055,99.7609 c 0.6725,-1.1629 3.5115,-6.1371 4.0815,-7.7398 0.642,-1.8121 0.777,-2.3313 0.777,-2.3313 0,0 -1.557,8.0114 -4.112,12.6862 0.56,1.89 1.229,3.979 1.986,6.212 0.885,-1.553 2.896,-5.12 3.623,-6.81 0.027,0.319 0.054,0.638 0.082,0.954 -0.644,2.475 -1.622,5.715 -2.874,8.254 3.214,16.725 13.559,38.625 24.704,50.448 l -76.7128,0 c -3.7883,0 -6.8711,-3.082 -6.8711,-6.871 l 0,-81.3841 c 17.3738,6.668 38.323,12.7633 56.3529,12.502 -0.6693,2.5812 -1.4315,4.9152 -2.2318,6.2679 -0.4122,0.6981 0.0449,3.5653 1.1953,7.8121" style="fill:url(#linearGradient3003);fill-opacity:1;fill-rule:nonzero;stroke:none" id="path3035" ns1:connector-curvature="0" /><path d="m 149.133,167.137 c -5.452,4.862 -12.053,2.909 -18.568,-2.873 -0.967,-0.859 -1.932,-1.812 -2.892,-2.83 -11.145,-11.823 -21.49,-33.723 -24.704,-50.448 1.252,-2.539 2.23,-5.779 2.874,-8.254 0.165,-0.635 0.314,-1.231 0.433,-1.738 0.283,-1.1999 0.435,-1.978 0.435,-1.978 0,0 -0.1,0.3781 -0.51,1.567 -0.078,0.228 -0.165,0.477 -0.268,0.77 -0.044,0.121 -0.105,0.268 -0.172,0.425 -0.727,1.69 -2.738,5.257 -3.623,6.81 -0.757,-2.233 -1.426,-4.322 -1.986,-6.212 2.555,-4.6748 4.112,-12.6862 4.112,-12.6862 0,0 -0.135,0.5192 -0.777,2.3313 -0.57,1.6027 -3.409,6.5769 -4.0815,7.7398 -1.1504,-4.2468 -1.6075,-7.114 -1.1953,-7.8121 0.8003,-1.3527 1.5625,-3.6867 2.2318,-6.2679 1.512,-5.8149 2.563,-12.8938 2.563,-12.8938 0,0 0.034,-0.4691 0.091,-1.191 -0.21,-4.8832 -0.084,-9.9461 0.294,-14.5223 0.501,-6.0578 1.444,-11.2617 2.646,-14.0468 l 0.816,0.4449 c -1.765,5.4871 -2.482,12.6781 -2.168,20.9711 0.475,12.6761 3.392,27.9629 8.782,43.896 9.106,24.052 21.74,43.35 33.303,52.566 -10.539,-9.518 -24.803,-40.327 -29.073,-51.736 -4.781,-12.776 -8.169,-24.7651 -10.211,-36.2518 3.523,10.7687 14.914,15.3976 14.914,15.3976 0,0 5.587,6.8903 12.116,16.7342 -3.911,-0.892 -10.333,-2.419 -12.484,-3.323 -3.173,-1.331 -4.028,-1.785 -4.028,-1.785 0,0 10.278,6.259 19.096,9.093 12.127,19.1 25.339,46.234 12.034,58.103" style="fill:#003b57;fill-opacity:1;fill-rule:nonzero;stroke:none" id="path3045" ns1:connector-curvature="0" /></g></g></g>
  </g>
  <g id="operation-badge" transform="translate(78.5517 78.5517) scale(0.689655)">
    <circle cx="27" cy="27" r="17" fill="none" stroke="#e2a35b" stroke-width="10"/>
    <path d="M 40 40 L 58 58" fill="none" stroke="#e2a35b" stroke-width="10" stroke-linecap="round"/>
  </g>
</svg>
