<?xml version="1.0" encoding="UTF-8" standalone="no"?>
<!-- Created with Inkscape (http://www.inkscape.org/) -->

<svg
   width="192"
   height="192"
   viewBox="0 0 50.799999 50.8"
   version="1.1"
   id="svg1"
   xml:space="preserve"
   inkscape:version="1.3.2 (091e20e, 2023-11-25)"
   sodipodi:docname="logo.svg"
   inkscape:export-filename="logo.png"
   inkscape:export-xdpi="128"
   inkscape:export-ydpi="128"
   xmlns:inkscape="http://www.inkscape.org/namespaces/inkscape"
   xmlns:sodipodi="http://sodipodi.sourceforge.net/DTD/sodipodi-0.dtd"
   xmlns="http://www.w3.org/2000/svg"
   xmlns:svg="http://www.w3.org/2000/svg"><sodipodi:namedview
     id="namedview1"
     pagecolor="#ffffff"
     bordercolor="#000000"
     borderopacity="0.25"
     inkscape:showpageshadow="2"
     inkscape:pageopacity="0.0"
     inkscape:pagecheckerboard="0"
     inkscape:deskcolor="#d1d1d1"
     inkscape:document-units="mm"
     inkscape:zoom="0.84096521"
     inkscape:cx="-32.700521"
     inkscape:cy="268.73882"
     inkscape:window-width="1512"
     inkscape:window-height="949"
     inkscape:window-x="0"
     inkscape:window-y="33"
     inkscape:window-maximized="0"
     inkscape:current-layer="g8" /><defs
     id="defs1" /><g
     inkscape:label="Layer 1"
     inkscape:groupmode="layer"
     id="layer1"
     transform="translate(-38.451209,-139.7748)"><g
       id="g6"
       transform="matrix(0.47496701,-0.49946235,0.49946235,0.47496701,-49.040529,117.17652)"
       style="stroke-width:1.45087"><g
         id="g7"
         transform="matrix(1.0807107,0,0,1.0807107,-7.9204099,-11.616675)"
         style="stroke-width:1.34251" /></g><path
       style="fill:#035fab;stroke:none;stroke-width:0.999996"
       d="m -61.356696,160.92469 h 22.144528 13.181272 c 3.046091,0 6.103192,0.22536 8.963259,-0.97605 7.011382,-2.94518 8.3846421,-12.44324 2.889301,-17.36039 -2.920827,-2.61352 -6.492936,-2.81333 -10.270808,-2.81333 h -21.880909 c -4.432733,0 -8.789073,-0.0726 -12.080996,3.28328 -4.43637,4.5226 -2.945647,12.18666 -2.945647,17.86649 z"
       id="path5" /><path
       style="fill:#ff6600;fill-opacity:1;stroke:none;stroke-width:0.999996"
       d="m -61.356696,190.55803 h 22.144528 13.181272 c 3.046091,0 6.103192,0.22536 8.963259,-0.97605 7.011382,-2.94518 8.3846421,-12.44324 2.889301,-17.36039 -2.920827,-2.61352 -6.492936,-2.81333 -10.270808,-2.81333 h -21.880909 c -4.432733,0 -8.789073,-0.0726 -12.080996,3.28328 -4.43637,4.5226 -2.945647,12.18666 -2.945647,17.86649 z"
       id="path6" /><g
       id="g8"
       transform="translate(106.31885,0.99282)"><g
         id="g9"
         transform="matrix(0.49828852,-0.42931734,0.42931734,0.49828852,-92.602374,61.907439)"
         style="stroke-width:1.52039"><path
           style="fill:#035fab;stroke:none;stroke-width:1.52038"
           d="m -67.626817,159.93187 h 22.144528 13.181272 c 3.046091,0 6.103192,0.22536 8.963259,-0.97605 7.011382,-2.94518 8.384642,-12.44324 2.889301,-17.36039 -2.920827,-2.61352 -6.492936,-2.81333 -10.270808,-2.81333 h -21.880909 c -4.432733,0 -8.789073,-0.0726 -12.080996,3.28328 -4.43637,4.5226 -2.945647,12.18666 -2.945647,17.86649 z"
           id="path7" /><path
           style="fill:#ff6600;fill-opacity:1;stroke:none;stroke-width:1.52038"
           d="m -67.626817,193.02602 h 22.144528 13.181272 c 3.046091,0 6.103192,0.22536 8.963259,-0.97605 7.011382,-2.94518 8.384642,-12.44324 2.889301,-17.36039 -2.920827,-2.61352 -6.492936,-2.81333 -10.270808,-2.81333 h -21.880909 c -4.432733,0 -8.789073,-0.0726 -12.080996,3.28328 -4.43637,4.5226 -2.945647,12.18666 -2.945647,17.86649 z"
           id="path8" /></g></g></g></svg>
